<?xml version="1.0" encoding="utf-8"?>
<!-- Generator: Adobe Illustrator 21.0.0, SVG Export Plug-In . SVG Version: 6.00 Build 0)  -->
<svg version="1.1" id="Camada_1" xmlns="http://www.w3.org/2000/svg" xmlns:xlink="http://www.w3.org/1999/xlink" x="0px" y="0px"
	 viewBox="0 0 747.3 141.7" style="enable-background:new 0 0 747.3 141.7;" xml:space="preserve">
<style type="text/css">
	.st0{fill:#404041;}
	.st1{fill:#E4405F;}
</style>
<g>
	<g>
		<path class="st0" d="M188,44.3c1.1-1.5,0.1-3.7-1.8-3.7c-0.2,0-0.4,0-0.5,0c-0.8,0-1.6,0-2.3-0.1c-3-0.1-5.5,2-6.4,4.8
			c-0.8,2.6-2.3,6.2-5.3,12.2c-5.6,11-11.2,21.8-16.8,32.8c-0.3,0.8-2.2,4.5-2.5,5.3l-4.9-38c-0.9-6.2-1.2-10.1-1.2-12.5
			c0.1-2.6-1.9-4.8-4.5-4.7c-0.8,0.1-1.5,0.1-2.2,0.1c-0.4,0-0.7,0-1,0c-2.2-0.1-3.8,2-3.1,4c0.7,2.3,1.5,5.9,2.4,11.9l4.6,29.8
			c1,6.6,1.3,9.2,1.6,12.5c0.3,2.8,3.1,4.6,5.8,4.6c0.3,0,0.4,0,0.6,0c3.1,0,6.1-1.6,7.5-4.6c2.2-4.6,5.4-10.6,12.1-22.9l12.5-22.7
			C184.9,49,186.4,46.4,188,44.3z"/>
		<path class="st0" d="M208.4,53.5c-19,0-28.2,18.3-28.2,32.8c0,8.5,3.1,12.1,5.1,13.9c3.4,3.1,8,4.5,12.7,4.5
			c19.4,0,28-20.2,28-34.2c0-2.7-0.2-8.3-4.4-12.4C218.6,55,214,53.5,208.4,53.5z M198.7,99c-5.1,0-9.6-3.1-9.6-11.7
			c0-7.1,3.5-28.1,17.9-28.1c3.6,0,5.7,1.4,6.8,2.4c2.9,2.7,3,6.4,3,8.4C216.8,74.4,214.6,99,198.7,99z"/>
		<path class="st0" d="M267.3,59c0.7-1.9,0.3-4.3-1.7-4.8c-1.6-0.4-3.5-0.6-5.8-0.6c-20.7,0-30.4,17.3-30.4,31.3
			c0,12.2,7.9,19.8,21.1,19.8c1.5,0,3.1-0.1,4.5-0.3c2.2-0.3,4.3-1.8,5.1-4c0.4-1.3-0.4-3-1.7-2.6c-1.8,0.6-3.7,1-6,1
			c-2.7,0-5.3-0.5-7.6-2.1c-4.8-3.1-5.7-8.3-5.7-12.6c0-12.4,7.2-24.6,19.3-24.6c1.7,0,3.1,0.3,4.1,0.6
			C264.3,61,266.5,60.8,267.3,59z"/>
		<path class="st0" d="M280.4,49.7c2.1,0,4.2-0.6,5.8-2c2.1-1.7,3-2.8,5.5-5.4c1.3,2.1,2,3.2,3.1,4.5c1.5,1.9,4,2.7,6.3,2.7
			c1.6,0,2.2-1.8,1.3-3c-1.7-2.1-2.8-3.7-3.4-5.1c-1.2-2.2-3.4-3.9-5.9-3.9c-2.4,0-4.6,1.3-6.2,3.1c-0.4,0.4-0.9,1-1.6,1.6
			c-0.2,0.3-2.6,2.7-5.4,5.1C278.8,48.2,279.1,49.7,280.4,49.7z"/>
		<path class="st0" d="M293.9,80.5c2.9-1.4,6.2-3.6,8.6-7.4c1.8-2.7,2.9-6.2,2.9-9.1c0-6.1-4.3-10.8-12.8-10.8
			c-5.8,0-13.9,2.5-20.1,10.1c-2.9,3.6-7.5,11.5-7.5,21.5c0.2,11.2,3.7,19.5,18,19.9c3.4,0,6.2-0.4,8.4-0.9c2.2-0.5,3.8-2.6,4.4-4.8
			c0.4-1.3-0.8-2.6-2-2.1c-2.2,0.9-5,1.8-8.8,1.8C271.3,99,274.4,84,274.4,84C281.5,83.7,287.6,83.6,293.9,80.5z M281.1,63.7
			c3.9-4.5,7.7-5.1,9.6-5.1c3.1,0,6,1.9,6,5.9c0,3.4-1.8,6.6-4.3,9c-5,4.8-11.3,8.4-17.8,8.4C275.3,77.1,277,68.3,281.1,63.7z"/>
		<path class="st0" d="M345.5,103.2c0.3,0,0.6,0,1,0c0.3,0,0.5,0,0.8,0.1c2.4,0.1,4.1-2.2,3.8-4.7c-0.4-1.8-0.6-4.5-1.3-10.1
			l-3.6-31.7c-0.4-4-0.7-7.8-1-11.6c-0.3-2.8-2.9-4.5-5.7-4.5c-0.8,0-1.4,0-2.1-0.1c-3.1-0.1-6.1,1.3-7.5,4.1
			c-4.5,9.2-13.6,26.9-18,35.3c-3.4,6.4-7.2,13.6-10.6,19.4c-1.1,1.8,0.4,3.8,2.4,3.8c0.4,0,0.8,0,1.2,0.1c2.7,0.1,4.9-2,6-4.5
			c0.5-1.4,1.3-3.2,2.5-5.7l4.1-8.5h22.4l0.5,8.2c0.2,2.8,0.4,4.8,0.4,6.4C341,101.6,343,103.3,345.5,103.2z M331.8,78.2
			c-2.1,0-4.5,0-11.1-0.2l8.1-15.9c1.2-2.2,6.4-11.9,7.4-13.8c0.2,1.1,0.6,3.9,1.4,11.6l1.7,18.1C336,78.2,334.5,78.2,331.8,78.2z"
			/>
		<path class="st0" d="M385.2,56.4c0.4-1.6-1-3.1-2.6-3.1c-1,0-2,0.1-3.2,0.1h-4.6c1.6-8.4,3.8-15.3,9.7-15.7
			c2.2-0.1,4.6-0.6,5.4-2.7c0.8-1.9-0.5-4-2.6-4c-3.6,0.2-7.6,1-11.8,4c-4.6,3.4-7.1,8.2-8.8,18.4c-1.8,0,0,0-1.1-0.1
			c-1.5-0.2-3,0.9-3.3,2.3c-0.3,1.5,0.5,3.2,2.1,3.2c0.2,0,0.4,0,0.6,0h0.4l-5.1,31.3c-2.2,12-3.6,19.7-6.9,23.8
			c-0.8,1.1-2.9,3.4-6.6,3.8c-2,0.1-4.1,0.9-4.8,2.9c-0.6,1.8,0.3,4,2.2,4c18.2-0.6,21.7-19.8,23.1-27.9c0.5-3,1.1-5.8,1.6-8.8
			l4.8-29h3c1,0,3.7,0,4.8,0.1C383.3,59,385,58.2,385.2,56.4z"/>
		<path class="st0" d="M398.1,37.5c-4.3,0-6.3,4.5-6.3,7.2c0,3.2,2.2,4.7,4.4,4.7c4,0,6.2-4.6,6.2-7.5
			C402.4,38.9,400.4,37.5,398.1,37.5z"/>
		<path class="st0" d="M395.9,54.9c-1,0.2-2.1,0.4-3.3,0.5c-2.2,0.2-2.8,2.7-2.7,4.8c0.1,3.2-0.7,9.2-2.9,21.1l-1.6,8.8
			c-0.7,4-1.3,6.6-1.8,8.6c-0.6,2.2,0.9,4.6,3.1,4.5c0.3,0,0.4,0,0.7,0c2.5,0,4.8-1.7,5-4.2c0.3-3.1,1-8.4,2.6-17.4l2.6-14.6
			c0.7-4,1.3-6.5,1.6-8.3C399.8,56.5,398.1,54.4,395.9,54.9z"/>
		<path class="st0" d="M418.7,97.2c-1.8,0.5-2.6,0.9-4.8,0.9c-2.8-0.2-3.6-3.3-3.6-3.3c-0.7-2.1,0.6-7.4,1.3-11.9l4.1-24.2
			c1.5-8,2.2-12,3-15.4c0.4-2.2-1.6-4.1-3.8-3.6c-1,0.3-1.9,0.4-3,0.5c-2.1,0.3-2.9,2.7-2.8,4.8c0.1,3.1-0.6,8.4-2.4,18.7
			c-3.6,20.7-3,16.9-3.9,21.8c0,0.9-0.8,4.7-1,7.8c-0.3,4.6,0.5,10.6,9.1,10.7c1.5,0,3-0.1,4.4-0.3c2.3-0.3,4.3-1.7,5.1-3.9
			C420.9,98.4,420,96.8,418.7,97.2z"/>
		<path class="st0" d="M438.1,37.5c-4.3,0-6.3,4.5-6.3,7.2c0,3.2,2.2,4.7,4.4,4.7c4,0,6.2-4.6,6.2-7.5
			C442.4,38.9,440.5,37.5,438.1,37.5z"/>
		<path class="st0" d="M436,54.9c-1,0.2-2.1,0.4-3.3,0.5c-2.2,0.2-2.8,2.7-2.7,4.8c0.1,3.2-0.7,9.2-2.9,21.1l-1.6,8.8
			c-0.7,4-1.3,6.6-1.8,8.6c-0.6,2.2,0.9,4.6,3.1,4.5c0.3,0,0.4,0,0.7,0c2.5,0,4.8-1.7,5-4.2c0.3-3.1,1-8.4,2.6-17.4l2.6-14.6
			c0.7-4,1.3-6.5,1.6-8.3C439.8,56.5,438.1,54.4,436,54.9z"/>
		<path class="st0" d="M483,54.9l-2.1,0.7c-2.9-1.1-5.6-2.1-9.6-2.1c-7.5,0-12.6,3.4-14.7,5c-13.4,9.9-14.9,26.6-14.9,30.9
			c0,10.2,6.6,15,13.1,15c8.3,0,14.1-10.8,18.2-16.3c0,1.1-1.3,7.7-1.6,11.4c-0.2,2.2,1.7,4,4,3.9c2.2-0.1,4.2-1.6,4.2-3.8
			c0-2.9,0.4-7.6,2-16.3l1.6-8.9c1.5-8.4,2.5-12.9,3.2-15.9C487,56.5,485.2,54.2,483,54.9z M475.1,73.1c-1.6,8.7-3.3,13.9-5.9,17.7
			c-3.1,4.6-7.1,6.1-10.4,6.1c-5.8,0-8.1-4.6-8.1-10.8c0-7.5,4-26.9,19.1-26.9c3.4,0,5.9,0.9,7.6,1.4L475.1,73.1z"/>
		<path class="st0" d="M531,40c-0.5,0.2-1.2,0.3-1.9,0.4c-2.2,0.3-3.4,2.7-3.3,5c0.2,2-0.3,4.8-1.2,9.5c-2.2-0.6-4-1.2-6.7-1.2
			c-7.8,0-15.3,4.1-20.3,10.2c-8.4,10.1-9.1,22.7-9.1,25.2c0,10.2,6.2,15.3,13.4,15.3c8.2,0,13.6-10.9,17.1-15.6
			c-0.5,2.6-1.4,8.5-1.6,10c-0.4,2.6,1.9,4.7,4.5,4.7c2.3-0.1,3.9-2.2,4-4.6c0-4.8,1.3-11.4,2.2-16.8l4.8-27.1
			c1.2-6.2,1.7-9.3,2.2-11.7C535.5,41.2,533.2,39.6,531,40z M516.4,88.8c-3.2,6.4-7.8,8.4-11,8.4c-5,0-7.9-4.7-7.9-11
			c0-5.7,3.8-26.9,19.5-26.9c2.6,0,4.5,0.5,6.6,1.2C520.1,78.2,519,83.6,516.4,88.8z"/>
		<path class="st0" d="M577,58.1c-3-3.1-7.5-4.6-13.2-4.6c-19,0-28.2,18.3-28.2,32.8c0,8.5,3.1,12.1,5.1,13.9
			c3.4,3.1,8,4.5,12.7,4.5c19.4,0,28-20.2,28-34.2C581.4,67.8,581.2,62.2,577,58.1z M554.1,99c-5.1,0-9.6-3.1-9.6-11.7
			c0-7.1,3.5-28.1,17.9-28.1c3.6,0,5.7,1.4,6.8,2.4c2.9,2.7,3,6.4,3,8.4C572.2,74.4,570,99,554.1,99z"/>
	</g>
	<g>
		<path class="st1" d="M721.3,61.4c-0.4,0.2-0.8,0.3-1.4,0.5c-1.8-0.7-3.9-1.8-7.3-1.8c-13.8,0-21.1,15.2-21.1,25.6
			c0,1.5,0.1,4.4,1.7,6.9c1.6,2.5,4.4,4.3,8,4.3c6.4,0,10.7-9.1,12.5-11.8c-1.8,9.4-3,16-6.2,18.9c-2.5,2.7-6.2,3.8-9.9,3.8
			c-1.9,0-3.2-0.3-4.3-0.6c-1.5-0.5-3.1,0.1-3.8,1.6c-0.7,1.4,0,3.1,1.5,3.4c1.3,0.3,2.8,0.4,4.7,0.4c3.5,0,7.5-0.5,10.7-1.8
			c9.1-3.4,10.3-10.6,12-19.9l3-16.8c1-5.5,1.6-8.1,2.1-10.1C724,62.4,722.7,60.8,721.3,61.4z M711.2,86.8c-1.8,2.6-4.4,4.6-7.5,4.6
			c-2,0-3.6-0.9-4.7-2.6c-1-1.6-1.2-3.8-1.2-5.3c0-5.1,2.3-19.2,13.7-19.2c2.7,0,4.5,0.8,5.6,1.3C714.7,78,713.7,83,711.2,86.8z"/>
		<path class="st1" d="M42.5,95.1l3.2,3.1c0.1,0.1,0.3,0.2,0.5,0.2c0.2,0,0.3-0.1,0.5-0.2l3.7-4.1c1,0.3,3.3,1,6.9,0.3l3.8,10.5
			c0.1,0.2,0.2,0.4,0.5,0.4c0.2,0.1,0.4,0,0.6-0.2l8.5-8.1c0.1-0.1,0.2-0.2,0.2-0.4L72.9,86c2.3-2,4.7-4.4,7-7
			c13.4-15,15.4-26.8,15.4-32.5c0-1.9-0.2-2.9-0.2-2.9c-0.1-0.3-0.3-0.4-0.5-0.5c-0.7-0.1-16.5-2.6-37.2,18.1c0,0-2.7,2.8-5.6,6.7
			l-10.6,3c-0.1,0-0.2,0.1-0.3,0.2l-7.5,9.1c-0.1,0.1-0.1,0.3-0.1,0.4c0,0.1,0,0.1,0,0.2c0.1,0.2,0.2,0.4,0.4,0.4l10.7,3.1
			c-0.1,2.3,0.4,4.3,1.6,5.9l-3.4,4.1C42.2,94.5,42.3,94.9,42.5,95.1z M69.8,62.3c3.6,0,6.5,2.9,6.5,6.5c0,3.6-2.9,6.5-6.5,6.5
			c-3.6,0-6.5-2.9-6.5-6.5C63.3,65.2,66.2,62.3,69.8,62.3z"/>
		<path class="st1" d="M38.7,102.8l-0.7-0.7c-0.4-0.4-0.8-0.6-1-0.5l-22.2,22.2c-0.1,0.1,0.1,0.6,0.5,1l0.7,0.7
			c0.4,0.4,0.8,0.6,1,0.5l22.2-22.2C39.4,103.6,39.1,103.2,38.7,102.8z"/>
		<path class="st1" d="M47.3,101.7l-0.7-0.7c-0.4-0.4-0.8-0.6-1-0.5l-22.2,22.2c-0.1,0.1,0.1,0.6,0.5,1l0.7,0.7
			c0.4,0.4,0.8,0.6,1,0.5l22.2-22.2C47.9,102.5,47.7,102.1,47.3,101.7z"/>
		<path class="st1" d="M15.4,116.6l0.7,0.7c0.4,0.4,0.8,0.6,1,0.5l22.2-22.2c0.1-0.1-0.1-0.6-0.5-1L38,93.9c-0.4-0.4-0.8-0.6-1-0.5
			l-22.2,22.2C14.7,115.7,15,116.2,15.4,116.6z"/>
		<path class="st1" d="M635.6,60.2c-6,0-10.1,8.1-11.9,10.5l1.8-10.5c0.8-4.1,1.2-6.3,1.5-7.8c0.3-1.6-1.4-2.7-3-2.3
			c-0.8,0.2-1.5,0.3-2.3,0.4c-1.6,0.2-2.3,1.8-2.1,3.4c0.1,0.4,0.1,0.9,0.1,1.4c0,3.7-1,9.3-2.2,16.3l-2.3,12.3
			c-0.8,3.8-1.2,6-1.7,7.7c-0.6,2,0,4.4,2,4.9c1.7,0.5,3.6,0.7,6.3,0.7c11.8,0,19.3-7.8,22.2-18.9c0.6-2.3,1-4.7,1-7
			C645.2,63.6,640.5,60.2,635.6,60.2z M624.1,93.3c-1.6,0-2.7-0.2-4.2-0.6c0.8-6.6,1.9-16.5,5.3-21.9c1.8-3,4.6-5.1,7.7-5.1
			c4.3,0,5.8,3.7,5.8,7.8C638.7,77.2,637.2,93.3,624.1,93.3z"/>
		<path class="st1" d="M658.1,91.6c-1.3,0.4-1.9,0.6-3.5,0.6c-2-0.1-2.6-2.4-2.6-2.4c-0.5-1.5,0.5-5.3,0.9-8.6l3-17.5
			c1.1-5.8,1.6-8.7,2.1-11.1c0.3-1.6-1.2-3-2.7-2.6c-0.7,0.2-1.4,0.3-2.1,0.4c-1.5,0.2-2.1,1.9-2,3.4c0.1,2.2-0.5,6-1.8,13.5
			c-2.6,14.9-2.1,12.2-2.8,15.8c0,0.6-0.6,3.4-0.7,5.6c-0.2,3.3,0.4,7.7,6.5,7.7c1.1,0,2.1-0.1,3.2-0.2c1.7-0.2,3.1-1.2,3.7-2.8
			C659.7,92.5,659.1,91.3,658.1,91.6z"/>
		<path class="st1" d="M689.1,63.4c-2.1-2.2-5.4-3.3-9.5-3.3c-13.7,0-20.4,13.2-20.4,23.7c0,6.2,2.3,8.8,3.7,10.1
			c2.5,2.3,5.8,3.2,9.1,3.2c14,0,20.2-14.6,20.2-24.7C692.3,70.4,692.2,66.3,689.1,63.4z M672.7,92.9c-3.7,0-6.9-2.3-6.9-8.4
			c0-5.1,2.5-20.3,12.9-20.3c2.6,0,4.2,1,4.9,1.8c2.1,1.9,2.1,4.6,2.1,6.1C685.7,75.2,684.1,92.9,672.7,92.9z"/>
		
			<rect x="561" y="72.7" transform="matrix(0.1095 -0.994 0.994 0.1095 458.5019 660.0503)" class="st1" width="73.2" height="2.8"/>
		<path class="st1" d="M123.4,69.9c0-30.2-24.6-54.8-54.8-54.8S13.8,39.7,13.8,69.9c0,12,3.9,23.2,10.5,32.2l6.3-6.3
			c-5.1-7.4-8-16.3-8-25.9C22.7,44.6,43.3,24,68.6,24s45.9,20.6,45.9,45.9s-20.6,45.9-45.9,45.9c-8.6,0-16.6-2.4-23.4-6.4l-6.4,6.4
			c8.6,5.6,18.8,8.9,29.9,8.9c5.1,0,10-0.7,14.7-2c4-0.1,8.2,0.3,11.2,1.2l13.2,3.9c5,1.5,7.4-1.2,5.5-6l-2.2-5.3
			c-1.3-3.2-1.4-7.6-0.4-11.4C118.5,95.5,123.4,83.3,123.4,69.9z"/>
	</g>
</g>
</svg>
